PathFileType	4	(X/Y/Z)	Walk1_0-155.trc
DataRate	CameraRate	NumFrames	NumMarkers	Units	OrigDataRate	OrigDataStartFrame	OrigNumFrames
30	30	9	22	m	30	58	155
Frame#	Time	Hip			RHip			RKnee			RAnkle			RBigToe			RSmallToe			RHeel			LHip			LKnee			LAnkle			LBigToe			LSmallToe			LHeel			Neck			Head			Nose			RShoulder			RElbow			RWrist			LShoulder			LElbow			LWrist		
		X1	Y1	Z1	X2	Y2	Z2	X3	Y3	Z3	X4	Y4	Z4	X5	Y5	Z5	X6	Y6	Z6	X7	Y7	Z7	X8	Y8	Z8	X9	Y9	Z9	X10	Y10	Z10	X11	Y11	Z11	X12	Y12	Z12	X13	Y13	Z13	X14	Y14	Z14	X15	Y15	Z15	X16	Y16	Z16	X17	Y17	Z17	X18	Y18	Z18	X19	Y19	Z19	X20	Y20	Z20	X21	Y21	Z21	X22	Y22	Z22
59	1.9666666666666666	-1.4416690668052452	0.8667655338925869	0.3490117518121939	-1.4331955718318652	0.848080053224805	0.44805770644386145	-1.3051484539821339	0.5050993506493381	0.4844431721509369	-1.6481768434986697	0.24049269723509448	0.4772070639657649	-1.6576142065203598	0.0407907952312684	0.46895053733220693	-1.69313495767709	0.07787430013134099	0.5023775829508776	-1.7167960186946805	0.22044431758558783	0.4909679458710406	-1.425200473909475	0.8503739509786192	0.24289244732627752	-1.3422019431740269	0.4773101261303104	0.26193710028130895	-1.3652281733743323	0.09443367760376715	0.27561135863823105	-1.1422930826325286	0.02858199120498824	0.30565500027029335	-1.1922263998550817	0.023691367815350937	0.22954208768588713	-1.4020098934866532	0.0456746154857715	0.2712821278958774	-1.4729153739598875	1.5567399681310912	0.32125268180932204	-1.4284707933277585	1.8109237155003552	0.32779291129074545	-1.3249781857550005	1.6745852006120607	0.337265016677983	-1.5005101152067268	1.4421447006956738	0.5088416075158221	-1.4302104695139664	1.1255078570527215	0.5776699215244616	-1.3725497438971932	0.8744184675625696	0.6110750535630776	-1.5123749586993087	1.439509920981277	0.11755374064656178	-1.481747827275712	1.1220542047911957	0.0599361780120013	-1.4010560951657964	0.8642928998317984	0.07944464506800651
60	2.0	-1.4164998071113561	0.8787606859941619	0.3442470462013772	-1.408429154624045	0.8680190753929773	0.44661864498029813	-1.2368353135280343	0.5297189129024388	0.4733375767378752	-1.5886581539408582	0.26454987946723274	0.4372667217051591	-1.5272466309150095	0.07473862806531693	0.47330353206984277	-1.5689693711832995	0.10020748641590543	0.5017915934201932	-1.6743409157780036	0.26184850089764666	0.4216932382906756	-1.4064187997625888	0.8673750670335556	0.23842124605397333	-1.3218620267598111	0.5011847751856573	0.25933613332183125	-1.364974219615091	0.10570237396669846	0.27288351017596457	-1.1371860593694103	0.03194242155918661	0.29627352714613775	-1.1819350881445003	0.03134381263925422	0.23353158776634877	-1.3912249385349846	0.047441820504608524	0.2776392321888594	-1.4381771262486074	1.5667148568764604	0.3173806138404237	-1.3839990232830055	1.8193712837652976	0.31701634862953343	-1.2897238750175182	1.6767565443057655	0.3338518094945794	-1.4706171585596937	1.4525709222025873	0.5112343040641771	-1.4005543309388913	1.115973229294624	0.5879630784271294	-1.3596910823698303	0.8752164194414161	0.6048093671955468	-1.4734605103959184	1.4474668557603283	0.11462918542662874	-1.4422308795208862	1.132618941044313	0.05005593025663302	-1.318151898807333	0.8818430528876616	0.07302198451419828
61	2.033333333333333	-1.3802021621476177	0.8903940096705032	0.3374246835900541	-1.3602039133172004	0.8717016483224701	0.44545882973265766	-1.1634033976419043	0.5538909945608186	0.4622183021169111	-1.4889804052286995	0.2758450936902021	0.43694077185308794	-1.400744979356006	0.11135961416443425	0.4808155606956915	-1.4652606188274886	0.10724212904387943	0.4942721116980553	-1.57442567355227	0.26386343983135835	0.4224383058798105	-1.3687613568370387	0.8720639234428523	0.23403224035512177	-1.3184377306409842	0.5010362507939744	0.25798220306767106	-1.366687326941418	0.10897862796587741	0.2711426440227171	-1.1360805346238292	0.0305664837687485	0.2948905047545558	-1.1908061805938406	0.02311638103612464	0.23043469521124113	-1.4066613044184924	0.02668935864739485	0.3061362255345865	-1.4026683303766272	1.5691013494711408	0.31845345828365074	-1.3539217533779693	1.8104537025623593	0.3289251461851437	-1.249423302339071	1.6762934477698428	0.32349477794995	-1.4311308919702612	1.4535857209283731	0.5164195181755534	-1.3792168804430176	1.1264778680301761	0.5855978647155132	-1.358344060861697	0.8838418086893487	0.6040795316051357	-1.4391299869272212	1.4539682133111598	0.10702525633675525	-1.3976568131047182	1.1394057622699776	0.044874686738034714	-1.261221744003687	0.9046720415833289	0.06965056279797438
62	2.066666666666667	-1.348726868197854	0.8929604410323501	0.3349615326424188	-1.3279714125534774	0.8713207239988577	0.4450529348685949	-1.106082469861376	0.5677493472367	0.45275137686826816	-1.3777574489195183	0.2709109995243853	0.4402453316354693	-1.2508296591582266	0.06337117258231842	0.4763839277862523	-1.2211288931161826	0.051143042136674824	0.4847086584835576	-1.4484302965315676	0.2371883472217787	0.43304759721671454	-1.3361927664509274	0.8720483017789885	0.2307319036377059	-1.3136712987417813	0.4926575158721723	0.2610092119284349	-1.3687871340376674	0.1050578201666871	0.2710993838468636	-1.1390599805776502	0.02936557398302731	0.29408002592548854	-1.193690668056898	0.026304603323581095	0.23008714266269412	-1.4234598824908415	0.024845124377828324	0.306007589574615	-1.366168626424687	1.5721643105746452	0.3177446230977132	-1.320887758452897	1.8174609757100852	0.32927029691105403	-1.2125285957877348	1.6785656765656074	0.32339227573840457	-1.403985811221014	1.4560136796980263	0.5175622888969041	-1.378774345873662	1.143611265704069	0.5586148081748756	-1.3506015894728487	0.8863058975546587	0.6060956800903009	-1.4056443645129733	1.4584335244673605	0.10507624976867967	-1.3149231421982779	1.1433794854128603	0.0835014364658664	-1.220648292026525	0.9086599739334855	0.07010794644345758
63	2.1	-1.3181320525813003	0.8926629924383382	0.335494301235906	-1.29699102344067	0.8710552728136343	0.44907928351470167	-1.0577028913435516	0.577875870496219	0.4454060715004595	-1.3022612937906315	0.215767236188929	0.42604544571671393	-1.1292222811156358	0.09626107845284404	0.4701422563188542	-1.1914498206396522	0.08153635674433785	0.4976097173522006	-1.3714709155365965	0.17399347473490326	0.4196722290098146	-1.311321183272724	0.8683230266774996	0.23407524053973008	-1.2982156165523104	0.491928516774914	0.2590010170325039	-1.3657735471886931	0.1103233639882355	0.2637903634267657	-1.1695355249000494	0.016562094881314084	0.30809174232291153	-1.195633528256954	0.027878549313954656	0.23521845976776298	-1.4069011963856675	0.02447971326412403	0.29870108038644555	-1.3319013104083839	1.576206373901723	0.3166663142485624	-1.2792681306014477	1.8331189048404175	0.3245424604174914	-1.1725241153814856	1.6815299021703425	0.32415982000614835	-1.3753042748359394	1.4575499608636384	0.5144639294176566	-1.3702057474978597	1.1457746827155704	0.5611224108666819	-1.3213507573704952	0.8800248886652056	0.6012537896540595	-1.3687154665593981	1.4606941530652797	0.10667846416656318	-1.2740247487038372	1.1496474151821205	0.07902652481528981	-1.161947702062673	0.9203176578523172	0.07050344473584229
64	2.1333333333333333	-1.281541730590516	0.8909697217626816	0.3364711710166126	-1.2595321400909707	0.873999105528368	0.46017500582404	-1.0174464490705424	0.5739437760357395	0.4378776954690843	-1.1803983062500434	0.1910736600876326	0.4373303343235415	-0.9983328572169131	0.08366040433166415	0.46659817601381015	-1.0434022547901003	0.0767412769185179	0.5150298734555797	-1.243559671854581	0.11459771365805207	0.4379161949382485	-1.2743619788864362	0.8711252655416113	0.2349255736669303	-1.2760831866510305	0.4846405612014619	0.2576569318901078	-1.3611638548977252	0.10413018898404142	0.2682488026425187	-1.1437579105318563	0.030204451565118935	0.2895558570014711	-1.191598308522432	0.029762766701707966	0.23289545311323956	-1.405006669261295	0.02996060512295141	0.29917419623464453	-1.2942353072875576	1.5761399814487271	0.31769368006294396	-1.2276197180934534	1.8408356959248144	0.3327365643975474	-1.1355758101249462	1.6769331933006886	0.32308882515588205	-1.3370574515252458	1.458148668135545	0.5161725014934339	-1.3499403342329017	1.1502112969807616	0.5623724186030161	-1.3231965293431311	0.891896533478714	0.6071095950678592	-1.330444128274596	1.4639209603430328	0.10481629622841791	-1.2331174106067928	1.1489839822414347	0.07270199243504188	-1.0938097668562181	0.9266346652797196	0.07445506583700255
65	2.1666666666666665	-1.2428827357458823	0.8870362759591796	0.3386149079262158	-1.2237193221216291	0.8722466771246907	0.45844728897953885	-1.0042688004285398	0.5921881379033014	0.431810424580937	-1.080516190091085	0.18301213047097656	0.4332266302356817	-0.8180492147259709	0.06919235225478593	0.4507695661468636	-0.914004087014277	0.07845487724067832	0.5064047506159114	-1.128843583567267	0.09944835610194701	0.43232883927023297	-1.2472987677454164	0.8640964796676353	0.23693874937320455	-1.2612970263040622	0.47331543521028663	0.2626336532046484	-1.3522267847891982	0.09659083192964953	0.2805379658056375	-1.151728113451244	0.030068015687215816	0.2824273272354789	-1.1972991046703088	0.03290935511119357	0.24020571509449656	-1.4120468323809208	0.04236911809425874	0.3007770470285243	-1.2570044078552975	1.578843047537134	0.31529643324551365	-1.1969859805064678	1.8260212957877615	0.3241240066107993	-1.0942564930813592	1.678335947933265	0.3247653594370565	-1.3025043713211826	1.457058717623855	0.5132405651202262	-1.3225302439357072	1.1485392539158414	0.5651493732395523	-1.3052202592432436	0.8853759558865401	0.6020877268179023	-1.291432258384593	1.461191228361714	0.10515605974425356	-1.1922440350344021	1.148360819837125	0.07226409593129043	-1.0401105180761958	0.9369270736937692	0.07734012904908492
66	2.2	-1.2041574735418838	0.8862397768772374	0.3354548485871505	-1.187288141334512	0.8741703012860916	0.4483300585776692	-0.9850945788418309	0.5817442056870495	0.4182894826589331	-0.9678664825643308	0.16782270170852823	0.4244487424004359	-0.7447914820422241	0.09278533783742211	0.42527737147036365	-0.7490947043324924	0.08174733073154541	0.5126561817459074	-0.9982821583444419	0.08141530439430174	0.4241566701253681	-1.21392748246562	0.8690841171874782	0.2271489889148394	-1.2691727406473878	0.48425267912557846	0.2446165980339393	-1.356399399883529	0.10045487540242237	0.2857718278779365	-1.1476188904207094	0.025487519048031093	0.2907721665588976	-1.2112483408876125	0.02345162909216091	0.26780980613384175	-1.4064529960150054	0.036671267196053424	0.2989191919225488	-1.2177621714209435	1.5711435324473946	0.3164152753108694	-1.1414239581749792	1.839806989448679	0.3358013182134678	-1.0561737299605212	1.672740987580541	0.32502226017627744	-1.2669935916833854	1.4527651435395326	0.5104456243055393	-1.292470969047103	1.14218792700738	0.5664221562640216	-1.281279267867867	0.8806768572154359	0.6016486502870965	-1.254233373857466	1.4599052008698385	0.10670035417577707	-1.1525943162096062	1.1467784578438074	0.06937167950933211	-0.986780369714751	0.9444633624705705	0.08035250405958998
67	2.2333333333333334	-1.1652712581980522	0.8808689253020936	0.333665951395754	-1.1476644260106603	0.8610864398268622	0.44743292720638184	-0.9647613657214751	0.5568083696958963	0.4157881121711158	-0.8653312679524783	0.16097113577902508	0.4228866322705652	-0.6550124412673041	0.1252696247809376	0.40972524737166455	-0.6617034476242999	0.10407837248434827	0.5036636456116327	-0.8793465325995323	0.061936245926302744	0.41648725974834505	-1.179192251095122	0.8626890880475575	0.22779648944947323	-1.2529714281368067	0.48539398505922404	0.2545869107445574	-1.3539554011927588	0.09560781959805097	0.2905495593539047	-1.1528487635556153	0.024590207327588234	0.3152640103632714	-1.1952019534072866	0.024564898670566822	0.2670138935389268	-1.4003530792442898	0.03685908679065755	0.3036388068915349	-1.1782936037755207	1.567760663732365	0.3172448771949893	-1.1079305353462288	1.833377143062116	0.33133891383531894	-1.0156609257236775	1.66834997711783	0.32730171126245966	-1.227009155940048	1.447846431152254	0.5129064036506712	-1.255916909117707	1.1417883208496238	0.5657586373890247	-1.2511605754521191	0.8829052435538979	0.603248378898748	-1.2146315127611618	1.453004721145453	0.1066949944673853	-1.113155428356508	1.1455337562506873	0.07019611088647848	-0.9373406881434768	0.9507011045742758	0.08216547860178405
